<svg xmlns="http://www.w3.org/2000/svg" width="32" height="32" viewBox="0 0 32 32"><path d="M2.62,15.79,1.38,14.21,16,2.72l4,3.2V4h6v6.52l4.62,3.7-1.24,1.56L24,11.48V6H22v4.08l-6-4.8ZM27,18H25v9H7V18H5V29H27Zm-8-3a2.11,2.11,0,0,0-1.55.64L16,17.15l-1.45-1.51A2.11,2.11,0,0,0,13,15a1.87,1.87,0,0,0-2,1.69c0,2.32,3.09,4.78,5,6,1.9-1.21,5-3.67,5-6A1.87,1.87,0,0,0,19,15m0-2a3.85,3.85,0,0,1,4,3.69C23,21.31,16,25,16,25s-7-3.69-7-8.31A3.85,3.85,0,0,1,13,13a4.12,4.12,0,0,1,3,1.26A4.12,4.12,0,0,1,19,13Z" fill="#b0b8bc"/></svg>
